# xmcd CD database file
#
# Track frame offsets:
#	150
#	12605
#	28564
#	43931
#	56440
#	74277
#	91000
#	108421
#	124324
#	138881
#	151925
#	171086
#	188471
#	202777
#
# Disc length: 2859 seconds
#
# Revision: 4
# Processed by: cddbd v1.5.2PL0 Copyright (c) Steve Scherf et al.
# Submitted via: CDex 1.70beta2
#
DISCID=b10b290e
DTITLE=Roger Cicero - Beziehungsweise
DYEAR=2007
DGENRE=Jazz
TTITLE0=Die Liste
TTITLE1=Nimm deinen Kerl zurück
TTITLE2=Kein Abendessen
TTITLE3=Sie will es nun mal
TTITLE4=Ich hab das Gefühl für dich verlor`n
TTITLE5=Das Experiment
TTITLE6=Wovon träumst du Nachts
TTITLE7=Der Anruf
TTITLE8=Schöner wär`s ohne
TTITLE9=Alle Möbel verrückt
TTITLE10=Gute Freunde
TTITLE11=Ich hätt` so gern noch Tschüss gesagt
TTITLE12=Bin heute Abend bei dir (Bonus Track)
TTITLE13=Dein Vater (Bonus Track)
EXTD=YEAR: 2007
EXTT0=
EXTT1=
EXTT2=
EXTT3=
EXTT4=
EXTT5=
EXTT6=
EXTT7=
EXTT8=
EXTT9=
EXTT10=
EXTT11=
EXTT12=
EXTT13=
PLAYORDER=
